# xmcd CD database file
#
# Track frame offsets:
#	150
#	20626
#	47252
#	70953
#	91804
#	104180
#	121956
#
# Disc length: 1815 seconds
#
# Revision: 0
# Processed by: cddbd v1.5PL3 Copyright (c) Steve Scherf et al.
# Submitted via: CDex 1.51
#
DISCID=59071507
DTITLE=Aaron Luttrell - Picture Fram
DYEAR=2001
DGENRE=New Age
TTITLE0=Picture Frame
TTITLE1=Thoughts of You
TTITLE2=Jackie's Song
TTITLE3=Shakuhachi Nights
TTITLE4=Thank You Grace
TTITLE5=Minor Distance
TTITLE6=Picture Frame II
EXTD=YEAR: 2001
EXTT0=
EXTT1=
EXTT2=
EXTT3=
EXTT4=
EXTT5=
EXTT6=
PLAYORDER=
